<?xml version="1.0" encoding="utf-8"?>
<!-- Generator: Adobe Illustrator 21.0.0, SVG Export Plug-In . SVG Version: 6.00 Build 0)  -->
<!DOCTYPE svg PUBLIC "-//W3C//DTD SVG 1.1//EN" "http://www.w3.org/Graphics/SVG/1.1/DTD/svg11.dtd">
<svg version="1.1" xmlns="http://www.w3.org/2000/svg" xmlns:xlink="http://www.w3.org/1999/xlink" x="0px" y="0px"
	 viewBox="0 0 112.5 53.1" style="enable-background:new 0 0 112.5 53.1;" xml:space="preserve">
<style type="text/css">
	.st0{fill:#D87300;}
	.st1{fill-rule:evenodd;clip-rule:evenodd;fill:#29473D;}
</style>
<g id="Background">
</g>
<g id="Guides">
</g>
<g id="Foreground">
	<path class="st0" d="M106.8,14.2c-0.5-0.5-1-0.9-1.9-1.3c-2.1-1.1-4.2-1.5-7.3-1.8c-0.4,1.5-0.8,2.9-1.6,4.4
		c-0.1,0.2-0.2,0.4-0.4,0.6c-1.3,2-3,3.3-4.6,4c0.2,0.2,0.4,0.4,0.5,0.6c1.3,1.4,2.5,2.2,3.7,2.7c1.2,0.5,2.4,0.8,3.7,1
		c4.1,0.8,7.8-0.1,9.1-3c0.7-1.4,0.8-3.6,0-5.4C107.8,15.4,107.3,14.7,106.8,14.2z M89.3,17.6c0.3,0.6,0.7,1.1,1,1.6
		c0.3-0.1,1-0.4,1.5-0.8c2.7-1.7,4-4.3,4.7-7.5c-2.2,0-3.9,0.2-5.7,0.6c-1.1,0.3-2.1,0.6-3.2,1C87.8,14.2,88.3,15.9,89.3,17.6z
		 M89.3,19.5c-0.4-0.6-0.8-1.2-1.2-1.9c-0.8-1.4-1.3-3-1.6-4.6c-0.6,0.3-1.2,0.7-1.7,1.1C83.3,15.4,83,17,83.3,18
		c0.3,1,1.1,2.1,3.9,1.9C87.9,19.8,88.7,19.7,89.3,19.5z M90.2,10.7l0.8-0.2c1.7-0.4,3.6-0.6,5.7-0.5c0.1-1.1,0-1.9-0.1-3.1
		c-0.3-2.3-1.7-4-3.8-3.9c-2,0.1-3.8,2.3-4.7,4.9c-0.4,1.1-0.6,2.3-0.5,3.6l0.8-0.3C89,11,89.6,10.9,90.2,10.7z M86.5,12
		c-0.1-2,0.2-4,1.1-6.2C88.4,3.6,90.8,0,93.5,0c2.4,0,3.9,3.1,4.2,5.2c0.1,0.6,0.2,1.4,0.2,2.3c0,0.8,0,1.6-0.1,2.6
		c1.6,0.1,3.1,0.3,4.5,0.6c4.7,1,7.2,3,8.7,5.1c1.2,1.7,2.3,5,0.7,8.2c-1.8,3.7-6.4,3.9-11,2.9c-3.8-0.8-8.1-3.3-10.6-6.4
		c-1.6,0.6-3.1,0.8-4.1,0.8c-2.6,0.1-5-0.9-5.5-2.7C79.8,15.8,84.1,13,86.5,12z M88.2,17.6c-0.8-1.5-1.3-3-1.6-4.6
		C86.9,14.6,87.4,16.2,88.2,17.6z"/>
	<path class="st1" d="M88.6,39.5c-0.3,0.7-1.2,1.3-2.5,1.3c-2.6-0.1-2.9-2-3-2.6h8c0-3.3-1.6-5.4-5.1-5.5c-3.4,0-5.1,2.3-5.1,4.8
		c0,2.9,2,4.9,5.2,4.9c3.4,0,4.6-2.3,4.8-3H88.6z M83.1,36.7c0.4-1.8,1.7-2.1,2.8-2.1c1.5,0,2.6,0.6,2.9,2.1H83.1z M68.8,42.3h2.1
		V36c0.5-0.6,1.2-1.3,2.9-1.3c1.4,0,2,0.8,2,2.6v5.1h2.1v-5.8c0-2.8-1.7-3.6-3.6-3.6c-1.9,0-2.8,0.8-3.4,1.4v-1.1h-2.1V42.3z
		 M62.8,31.5H65v-1.9h-2.1V31.5z M62.8,42.3H65v-9.1h-2.1V42.3z M56.8,42.3h2.1V29.9h-2.1V42.3z M46.5,35.3h1.6v4.7
		c0,2,1.1,2.6,3.1,2.6c0.7,0,1.2-0.1,2.3-0.2v-1.9c-0.5,0.2-1.4,0.3-1.8,0.3c-1.2,0-1.5-0.7-1.5-1.3v-4.2h3.2v-1.8h-3.2v-3h-2.1v3
		h-1.6V35.3z M34.8,42.3h2.1V36c0.5-0.6,1.2-1.3,2.9-1.3c1.4,0,2,0.8,2,2.6v5.1h2.1v-5.8c0-2.8-1.7-3.6-3.6-3.6
		c-1.9,0-2.8,0.8-3.4,1.4v-4.4h-2.1V42.3z M26.2,38c-1.1,0-2.4-0.4-2.4-1.8c0-1.4,1.3-1.8,2.4-1.8c1.1,0,2.5,0.4,2.5,1.8
		C28.7,37.5,27.3,38,26.2,38z M26.8,42.4c2.3,0,2.7,0.1,2.7,0.8c0,0.8-1.8,1.1-3.4,1.1c-1.7,0-2.6-0.2-2.6-1.1
		c0-0.6,0.7-0.8,1.2-0.8H26.8z M31.8,32.7h-0.3c-0.9,0-1.6,0.6-1.9,1c-0.6-0.4-1.6-0.8-3.2-0.8c-2.2,0-4.7,0.6-4.7,3.3
		c0,1.2,0.5,2.1,1.5,2.6c-0.7,0.1-1.6,0.8-1.6,1.8c0,0.9,0.6,1.3,1.4,1.4c-0.9,0.2-1.8,0.4-1.8,1.4c0,1.5,2.2,2.3,4.8,2.3
		c2.8,0,5.9-0.9,5.9-3.1c0-1.4-1.2-2-3.2-2.1h-2.9c-1.8,0-2-0.2-2-0.5c0-0.3,0.3-0.6,0.6-0.7c0.4,0.2,1.1,0.3,1.9,0.3
		c2.4,0,4.6-0.9,4.6-3.4c0-0.8-0.3-1.3-0.4-1.5c0.1-0.1,0.4-0.2,0.7-0.2c0.2,0,0.6,0.1,0.8,0.1V32.7z M15.9,31.5H18v-1.9h-2.1V31.5z
		 M15.9,42.3H18v-9.1h-2.1V42.3z M12.8,32.9c-0.3-0.8-1.2-3.3-6.5-3.3c-1,0-5.8,0-5.8,3.7c0,1.9,1.6,3.1,4.5,3.5l3,0.4
		c1.8,0.2,2.7,0.7,2.7,1.5c0,1.1-1.6,1.7-3.6,1.7c-3.3,0-4.2-1.3-4.6-2.2L0,39c0.3,0.9,1.6,3.6,6.9,3.6c3.3,0,6.1-1.1,6.1-4
		c0-2.1-1.6-3.1-4.4-3.6l-2.9-0.4c-2.5-0.3-2.8-0.9-2.8-1.4c0-1.1,1.6-1.5,3.3-1.5c2.9,0,3.9,1,4.3,2.1L12.8,32.9z"/>
	<path class="st1" d="M97.5,52.2h-3.2v-1.2H96v-0.8h-1.7v-1h3.1v-0.8h-3.9V53h4V52.2z M89.5,49.3h1.7v-0.8H87v0.8h1.7V53h0.8V49.3z
		 M84.5,48.6h-0.8v2.5c0,0.8-0.2,1.3-1.4,1.3c-1.2,0-1.4-0.5-1.4-1.3v-2.5h-0.8v2.5c0,1.1,0.4,2.1,2.1,2.1c1.8,0,2.1-0.9,2.1-2.1
		V48.6z M76.1,49.3h1.7v-0.8h-4.2v0.8h1.7V53h0.8V49.3z M71.1,48.6h-0.8V53h0.8V48.6z M66.2,49.3h1.7v-0.8h-4.2v0.8h1.7V53h0.8V49.3
		z M61.7,49c-0.3-0.2-1.1-0.6-2.2-0.6c-1.5,0-2,0.7-2,1.4c0,0.9,0.7,1.2,1.7,1.2c1.7,0,1.9,0.1,1.9,0.6c0,0.5-0.6,0.7-1.4,0.7
		c-1.2,0-1.7-0.4-2.3-0.7l-0.4,0.7c0.3,0.2,1.1,0.8,2.6,0.8c1,0,2.2-0.2,2.2-1.5c0-0.7-0.2-1.3-2.2-1.3c-1.3,0-1.4-0.1-1.4-0.6
		c0-0.4,0.4-0.6,1.2-0.6c1,0,1.5,0.3,1.8,0.5L61.7,49z M54.7,48.6h-0.8v3.3l-2.8-3.3h-0.8V53h0.8v-3.3l2.8,3.3h0.8V48.6z M47.2,48.6
		h-0.8V53h0.8V48.6z"/>
</g>
</svg>
