<?xml version="1.0" encoding="utf-8"?>
<!-- Generator: Adobe Illustrator 22.0.1, SVG Export Plug-In . SVG Version: 6.00 Build 0)  -->
<!DOCTYPE svg PUBLIC "-//W3C//DTD SVG 1.1//EN" "http://www.w3.org/Graphics/SVG/1.1/DTD/svg11.dtd">
<svg version="1.1" xmlns="http://www.w3.org/2000/svg" xmlns:xlink="http://www.w3.org/1999/xlink" x="0px" y="0px" width="19px"
	 height="19px" viewBox="0 0 19 19" style="enable-background:new 0 0 19 19;" xml:space="preserve">
<style type="text/css">
	.st0{fill:none;}
	.st1{fill:#C94136;stroke:#640D0D;stroke-width:0.5;stroke-miterlimit:10;}
	.st2{fill:#640D0D;stroke:#FFFFFF;stroke-width:0.25;stroke-miterlimit:10;}
	.st3{fill:#C94136;stroke:#FFFFFF;stroke-width:0.25;stroke-miterlimit:10;}
	.st4{fill:none;stroke:#FFFFFF;stroke-width:0.25;stroke-linecap:round;stroke-miterlimit:10;}
</style>
<g id="Layer_1">
	<title>marker-15.svg</title>
	<rect class="st0" width="19" height="19"/>
	<path class="st1" d="M9.5,2C7.1,2,4.2,3.5,4.2,7.3c0,2.6,4.1,8.2,5.3,9.7c1.1-1.5,5.3-7,5.3-9.7C14.8,3.5,11.9,2,9.5,2z"/>
</g>
<g id="barn">
	<polygon class="st2" points="11.8,6.8 9.5,5.3 9.5,5.3 7.2,6.8 7.1,7.9 7.1,11.1 12,11.1 12,7.9 	"/>
	<rect x="9" y="6.5" class="st2" width="1.1" height="1.1"/>
	<polygon class="st2" points="11.5,10.6 7.5,10.6 7.5,8.4 9.5,8.4 11.5,8.4 	"/>
	<line class="st3" x1="9.5" y1="10.6" x2="9.5" y2="8.4"/>
	<line class="st3" x1="9.6" y1="8.5" x2="11.5" y2="10.5"/>
	<line class="st3" x1="11.5" y1="8.4" x2="9.6" y2="10.4"/>
	<line class="st3" x1="7.6" y1="8.5" x2="9.4" y2="10.5"/>
	<line class="st3" x1="9.4" y1="8.5" x2="7.6" y2="10.5"/>
	<polyline class="st4" points="6.7,7.9 6.9,6.5 9.5,4.8 12.1,6.5 12.4,7.9 	"/>
</g>
</svg>
