<?xml version="1.0" encoding="utf-8"?>
<!-- Generator: Adobe Illustrator 22.0.1, SVG Export Plug-In . SVG Version: 6.00 Build 0)  -->
<!DOCTYPE svg PUBLIC "-//W3C//DTD SVG 1.1//EN" "http://www.w3.org/Graphics/SVG/1.1/DTD/svg11.dtd">
<svg version="1.1" id="Layer_1" xmlns="http://www.w3.org/2000/svg" xmlns:xlink="http://www.w3.org/1999/xlink" x="0px" y="0px"
	 width="19px" height="19px" viewBox="0 0 19 19" style="enable-background:new 0 0 19 19;" xml:space="preserve">
<style type="text/css">
	.st0{display:none;}
	.st1{fill:none;}
	.st2{fill:#FDF277;stroke:#564523;stroke-width:0.5;stroke-miterlimit:10;}
	.st3{fill:#564523;}
</style>
<g id="Layer_1_1_" class="st0">
</g>
<g id="pin">
	<g id="Layer_1_2_">
		<title>marker-15.svg</title>
		<rect class="st1" width="19" height="19"/>
		<path class="st2" d="M9.5,2C7.1,2,4.2,3.5,4.2,7.3c0,2.6,4.1,8.2,5.3,9.7c1.1-1.5,5.3-7,5.3-9.7C14.8,3.5,11.9,2,9.5,2z"/>
	</g>
</g>
<g id="grain">
	<g>
		<path class="st3" d="M9.6,2.9c0.3,0.5,0.5,0.9,0.6,1.4c0.1,0.4,0,0.6-0.3,0.8C9.6,5.3,9.3,5.3,9,5.1C8.8,4.9,8.6,4.6,8.8,4.3
			C9,3.8,9.3,3.4,9.6,2.9L9.6,2.9z"/>
		<path class="st3" d="M7.6,5.1c1.1-0.3,1.9,0.5,1.8,1.5C8.6,6.9,7.7,6.2,7.6,5.1z"/>
		<path class="st3" d="M11.5,6.7c-0.2,1.2-0.5,1.5-1.6,1.6c-0.2,0-0.3-0.1-0.3-0.3c0-0.8,0.4-1.3,1.2-1.4C11,6.8,11.2,6.7,11.5,6.7z
			"/>
		<path class="st3" d="M9.4,11.6c0.1,0.2-0.1,0.3-0.3,0.3c-0.9,0-1.4-0.5-1.5-1.4c0-0.1,0.1-0.2,0.1-0.2c0.5,0,0.9,0.1,1.3,0.4
			C9.4,10.8,9.4,11.1,9.4,11.6z"/>
		<path class="st3" d="M9.5,13.2c0,0.4,0,0.4-0.4,0.3c-0.9-0.1-1.4-0.6-1.5-1.4c0,0,0.1-0.1,0.1-0.2C8.1,11.8,9,12,9.2,12.5
			C9.4,12.8,9.4,13,9.5,13.2z"/>
		<path class="st3" d="M7.6,6.8c1-0.2,1.9,0.3,1.8,1.4c0,0.2-0.1,0.3-0.3,0.3C8.2,8.2,7.9,8,7.7,7.1C7.7,7,7.7,6.9,7.6,6.8z"/>
		<path class="st3" d="M11.5,12c0,1-0.7,1.7-1.6,1.6c-0.2,0-0.2-0.1-0.2-0.2c0-0.7,0.3-1.2,1-1.4C10.8,12,11.2,12,11.5,12z"/>
		<path class="st3" d="M11.5,5c-0.2,1.2-0.5,1.5-1.5,1.6c-0.2,0-0.3-0.1-0.3-0.3c0-0.7,0.3-1.2,1.1-1.3C10.9,5,11.2,5,11.5,5z"/>
		<path class="st3" d="M11.5,10.2c-0.2,1.1-0.5,1.5-1.5,1.6c-0.2,0-0.3,0-0.3-0.2c0-0.7,0.3-1.2,1-1.4c0.2,0,0.4-0.1,0.5-0.1
			C11.3,10.2,11.4,10.2,11.5,10.2z"/>
		<path class="st3" d="M11.5,8.5c-0.2,1.1-0.5,1.5-1.6,1.5c-0.2,0-0.2-0.1-0.2-0.2c0-0.8,0.5-1.3,1.3-1.4
			C11.1,8.5,11.3,8.5,11.5,8.5z"/>
		<path class="st3" d="M7.6,8.5c0.5,0,1,0,1.4,0.4c0.4,0.3,0.5,0.7,0.4,1.2c0,0-0.1,0.1-0.2,0.1c-0.5,0-1.3-0.2-1.4-0.9
			C7.7,9,7.7,8.7,7.6,8.5z"/>
	</g>
</g>
</svg>
