<?xml version="1.0" encoding="utf-8"?>
<!-- Generator: Adobe Illustrator 22.0.1, SVG Export Plug-In . SVG Version: 6.00 Build 0)  -->
<!DOCTYPE svg PUBLIC "-//W3C//DTD SVG 1.1//EN" "http://www.w3.org/Graphics/SVG/1.1/DTD/svg11.dtd">
<svg version="1.1" id="Layer_1" xmlns="http://www.w3.org/2000/svg" xmlns:xlink="http://www.w3.org/1999/xlink" x="0px" y="0px"
	 width="19px" height="19px" viewBox="0 0 19 19" style="enable-background:new 0 0 19 19;" xml:space="preserve">
<style type="text/css">
	.st0{fill:none;}
	.st1{fill:#417060;stroke:#29473D;stroke-width:0.5;stroke-miterlimit:10;}
	.st2{fill:#FFFFFF;}
</style>
<title>marker-15.svg</title>
<rect class="st0" width="19" height="19"/>
<path class="st1" d="M9.5,2C7.1,2,4.2,3.5,4.2,7.3c0,2.6,4.1,8.2,5.3,9.7c1.1-1.5,5.3-7,5.3-9.7C14.8,3.5,11.9,2,9.5,2z"/>
<path class="st2" d="M7.4,10.8c0.1-0.1,0.3-0.5,0.3-0.5l-0.5,0.1c0,0,0.4-0.3,0.6-0.8c0.3-0.5,0.3-0.5,0.3-0.5L8,9.1l0.3-0.5
	L7.9,8.7c0,0,0.2-0.3,0.4-0.7c0.2-0.4,0.3-0.6,0.3-0.6L8.4,7.4c0,0,0.2-0.3,0.2-0.4c0.1-0.1,0.2-0.4,0.2-0.4L8.5,6.8
	c0,0,0.3-0.4,0.4-0.5C9,6,9.2,5.5,9.2,5.5L9,5.5c0,0,0.2-0.3,0.2-0.4C9.3,5,9.5,4.5,9.5,4.5s0.2,0.6,0.3,0.8
	c0.1,0.2,0.4,0.7,0.4,0.7l-0.2,0c0,0,0,0,0.1,0.1c0,0,0.2,0.3,0.2,0.3l-0.2,0c0,0,0,0.1,0.1,0.4c0.2,0.4,0.4,0.8,0.4,0.8l-0.3-0.1
	c0,0,0,0.2,0.2,0.4c0.2,0.4,0.4,0.5,0.4,0.5l-0.3,0c0,0,0.1,0.5,0.3,0.8c0.3,0.5,0.5,0.8,0.5,0.8l-0.6-0.1c0,0,0.1,0.3,0.2,0.6
	c0.2,0.4,0.5,0.6,0.5,0.6l-0.6-0.1l0.3,0.2l-1.1-0.2c0,0-0.1,0-0.3-0.1l0.1,1H9.2l0.1-0.9c-0.1,0-0.2,0.1-0.3,0.1
	c-0.1,0-0.6,0.2-0.6,0.2l0.2-0.3c0,0-0.5,0.1-0.6,0.1c-0.2,0-0.7,0-0.7,0S7.3,11,7.4,10.8z"/>
</svg>
