<?xml version="1.0" encoding="utf-8"?>
<!-- Generator: Adobe Illustrator 21.0.0, SVG Export Plug-In . SVG Version: 6.00 Build 0)  -->
<!DOCTYPE svg PUBLIC "-//W3C//DTD SVG 1.1//EN" "http://www.w3.org/Graphics/SVG/1.1/DTD/svg11.dtd">
<svg version="1.1" id="Layer_1" xmlns="http://www.w3.org/2000/svg" xmlns:xlink="http://www.w3.org/1999/xlink" x="0px" y="0px"
	 viewBox="0 0 19 19" style="enable-background:new 0 0 19 19;" xml:space="preserve">
<style type="text/css">
	.st0{fill:none;}
	.st1{fill:#FFFFFF;}
</style>
<title>marker-15.svg</title>
<rect class="st0" width="19" height="19"/>
<path class="st1" d="M0.3,1.9v11.7c5.4,0,9.2,3.4,9.2,3.4s3.8-3.4,9.2-3.4V1.9c-6.8,0-9.2,2.9-9.2,2.9S7,1.9,0.3,1.9z M1.8,3.7
	c2,0,5.2,0.7,6.8,2.3l0.9,1.1L10.4,6c1.6-1.6,4.7-2.3,6.8-2.3v8.3c-3.4,0-5.6,1.4-7.7,2.9c-2-1.4-4.3-2.9-7.7-2.9V3.7z M3.6,6L3.6,6
	c1.4,0.5,3.6,1.4,5,2.3V7.8C7,6.9,5,6.2,3.6,6z M15.4,6c-1.4,0.2-3.6,1.1-5,1.8v0.5C12,7.4,14,6.5,15.4,6L15.4,6z M3.6,7.4L3.6,7.4
	C5,8,7,8.9,8.6,9.6V9.4C7,8.5,5,7.8,3.6,7.4z M15.4,7.4c-1.4,0.2-3.6,1.1-5,1.8v0.5C12,8.7,14,8,15.4,7.8V7.4z M3.6,8.9L3.6,8.9
	c1.4,0.7,3.4,1.4,5,2.3V11C7,10.1,5,9.2,3.6,8.9z M15.4,8.9c-1.4,0.2-3.6,1.1-5,1.8V11c1.6-0.9,3.6-1.6,5-1.8V8.9z M3.6,10.5v0.2
	C5,11,7,11.9,8.6,12.5v-0.2C7,11.6,5,10.7,3.6,10.5z M15.4,10.5c-1.4,0.2-3.6,1.1-5,1.8v0.2c1.6-0.7,3.6-1.6,5-1.8V10.5z"/>
</svg>
